:SAMPLES-PER-SECOND 30
:FULLY-SPECIFIED
:DEGREES
273
root  8.47559 36.2745 21.8258 -179.693 9.56709 179.221
RightUpLeg  -17.7565 1.10668 -24.8108
RightLeg  31.5115 -15.135 -10.0149
RightFoot  0.490782 -1.75145 16.891
RightToes  2.32829e-010 0 -3.6325e-017
Spine  13.8304 0.0803672 -12.1212
Spine1  20.4905 -4.67953 7.1944
HEad  -15.6244 18.3415 -8.05486
LeftShoulder1  1.34123 -2.47795 -15.6315
LeftArm  16.6299 -8.87977 -59.9237
LeftForeArm  42.0753 -76.0919 -47.6365
LeftHand  -1.77531 -3.11351 24.1904
RightShoulder  0.817516 0.795861 11.9701
RightArm  2.35202 -22.1526 61.9579
RightForeArm  111.096 77.3469 123.152
RightHand  -0.977718 4.04894 -12.2528
LeftUpLeg  -22.9098 13.1776 4.50741
LeftLeg  46.4641 7.61059 8.93788
LeftFoot  -21.6848 -0.767081 -9.86789
LeftToes  -5.54824e-011 -8.71001e-011 8.3852e-012
274
root  7.5523 37.3368 21.7364 -179.815 11.5786 179.412
RightUpLeg  -16.7391 -2.28485 -19.3327
RightLeg  33.1821 -12.6534 -9.0005
RightFoot  -2.38075 -1.45727 18.2242
RightToes  2.32829e-010 0 -3.6325e-017
Spine  12.8692 -0.581819 -10.9411
Spine1  20.5747 -4.82565 6.45435
HEad  -12.9056 20.1008 -8.75196
LeftShoulder1  1.20536 -1.92273 -15.3952
LeftArm  15.7842 -6.34883 -61.9419
LeftForeArm  49.2193 -77.3598 -54.5253
LeftHand  -1.81989 -3.17035 24.607
RightShoulder  0.78087 0.742847 11.2743
RightArm  5.44521 -21.7654 62.7913
RightForeArm  114.755 76.3354 128.763
RightHand  -0.987991 3.89368 -12.5718
LeftUpLeg  -18.8968 15.1103 3.1946
LeftLeg  39.0979 9.07969 8.20818
LeftFoot  -18.2871 -0.432533 -8.92474
LeftToes  -5.54824e-011 -8.71001e-011 8.3852e-012
275
root  6.71106 38.3784 21.5976 -179.419 13.8402 179.573
RightUpLeg  -15.4174 -3.67377 -13.8255
RightLeg  33.3618 -10.1356 -7.35017
RightFoot  -4.19068 -1.18713 18.3669
RightToes  2.32829e-010 0 -3.6325e-017
Spine  11.4304 -1.01237 -9.32409
Spine1  20.518 -4.64277 5.85687
HEad  -10.7985 22.241 -9.481
LeftShoulder1  1.01767 -1.11613 -15.1896
LeftArm  15.6697 -2.76675 -63.8633
LeftForeArm  57.5735 -78.3816 -62.4482
LeftHand  -1.92516 -3.3161 25.5648
RightShoulder  0.740949 0.669231 10.5712
RightArm  7.98486 -22.1322 63.7352
RightForeArm  116.506 75.0498 133.914
RightHand  -1.04352 3.75173 -13.4585
LeftUpLeg  -15.298 15.6923 1.96534
LeftLeg  31.4 11.4462 7.79173
LeftFoot  -13.5895 -0.094904 -9.16243
LeftToes  -5.54824e-011 -8.71001e-011 8.3852e-012
276
root  5.9867 39.2315 21.5081 -178.864 15.8208 179.499
RightUpLeg  -13.7312 -3.18285 -8.84597
RightLeg  32.6725 -8.35358 -5.97233
RightFoot  -4.82025 -1.0894 18.4078
RightToes  2.32829e-010 0 -3.6325e-017
Spine  10.1785 -1.02808 -8.47864
Spine1  20.2037 -4.44606 6.15062
HEad  -9.24161 24.0288 -9.68085
LeftShoulder1  0.87 -0.454134 -15.136
LeftArm  16.0826 1.32289 -64.8598
LeftForeArm  70.0169 -79.3084 -73.9413
LeftHand  -1.9837 -3.55701 25.633
RightShoulder  0.731131 0.691397 10.2012
RightArm  10.0278 -22.9162 64.1789
RightForeArm  120.028 73.7859 138.378
RightHand  -0.992282 3.52637 -13.1117
LeftUpLeg  -13.2734 15.1197 0.865981
LeftLeg  25.9704 13.4637 7.40006
LeftFoot  -7.89912 0.363382 -10.424
LeftToes  -5.54824e-011 -8.71001e-011 8.3852e-012
277
root  5.38889 39.7856 21.5204 -178.943 16.8132 178.731
RightUpLeg  -11.0606 -3.23274 -5.21751
RightLeg  31.3583 -6.05263 -4.21183
RightFoot  -5.05918 -1.28215 22.4382
RightToes  2.32829e-010 0 -3.6325e-017
Spine  9.64621 -0.936523 -8.92014
Spine1  19.9039 -4.48563 6.77131
HEad  -8.26557 24.8224 -9.33996
LeftShoulder1  0.817013 -0.187896 -15.2937
LeftArm  17.214 4.78872 -64.3313
LeftForeArm  83.8485 -79.7461 -87.0707
LeftHand  -2.07036 -3.87594 25.8194
RightShoulder  0.730824 0.653889 10.3735
RightArm  11.5935 -23.5833 64.3865
RightForeArm  125.164 72.8205 141.676
RightHand  -0.864086 3.34407 -11.7008
LeftUpLeg  -13.0054 13.3743 -0.136627
LeftLeg  24.5058 12.3372 6.40281
LeftFoot  -2.3102 0.979562 -12.1567
LeftToes  -5.54824e-011 -8.71001e-011 8.3852e-012
278
root  4.83714 39.9457 21.5518 -179.269 16.6529 177.714
RightUpLeg  -7.98244 -5.80926 -2.62789
RightLeg  30.0959 -2.32349 -1.69085
RightFoot  -5.23121 -1.63595 29.4304
RightToes  2.32829e-010 0 -3.6325e-017
Spine  9.02537 -1.24916 -9.35679
Spine1  20.2131 -4.84922 7.00157
HEad  -8.13518 24.7709 -9.0822
LeftShoulder1  0.829641 -0.227289 -15.4091
LeftArm  18.8341 7.11758 -62.7288
LeftForeArm  93.7284 -79.7092 -96.6583
LeftHand  -2.24539 -4.18422 27.0488
RightShoulder  0.675269 0.310121 10.5168
RightArm  13.002 -23.8294 64.8967
RightForeArm  128.805 72.2314 143.566
RightHand  -0.811516 3.47338 -10.8537
LeftUpLeg  -14.4352 8.89074 -0.598285
LeftLeg  26.792 7.23662 4.24935
LeftFoot  1.22321 1.58315 -14.4239
LeftToes  -5.54824e-011 -8.71001e-011 8.3852e-012
279
root  4.2629 39.7049 21.5068 -178.972 16.0857 176.991
RightUpLeg  -5.70184 -10.3614 -0.558119
RightLeg  29.5226 0.584457 0.124214
RightFoot  -6.16315 -1.48954 31.2568
RightToes  2.32829e-010 0 -3.6325e-017
Spine  7.30423 -1.87411 -8.9794
Spine1  20.9687 -5.34575 7.21067
HEad  -8.40513 24.3947 -9.26404
LeftShoulder1  0.876824 -0.4553 -15.3166
LeftArm  20.1634 8.95639 -61.168
LeftForeArm  98.5156 -79.6169 -100.916
LeftHand  -2.3997 -4.41446 28.183
RightShoulder  0.548851 -0.3353 10.0914
RightArm  14.5475 -23.9108 65.4195
RightForeArm  130.755 71.7156 144.924
RightHand  -0.79095 3.52842 -10.5207
LeftUpLeg  -17.1798 1.53423 -0.120115
LeftLeg  31.2416 1.5705 1.37089
LeftFoot  1.13795 1.78229 -16.3102
LeftToes  -5.54824e-011 -8.71001e-011 8.3852e-012
280
root  3.64248 39.161 21.4306 -178.612 16.5219 176.173
RightUpLeg  -4.37781 -13.4806 0.462015
RightLeg  29.6538 0.144347 -0.157993
RightFoot  -10.5483 -0.305796 23.9926
RightToes  2.32829e-010 0 -3.6325e-017
Spine  5.5179 -2.0673 -8.32673
Spine1  21.1648 -5.282 7.55981
HEad  -8.45677 23.9273 -9.64642
LeftShoulder1  0.904058 -0.623621 -15.0444
LeftArm  20.9967 10.7324 -60.3969
LeftForeArm  98.637 -79.6477 -100.591
LeftHand  -2.47223 -4.63406 28.3871
RightShoulder  0.418672 -0.994176 9.41517
RightArm  16 -24.1874 65.2997
RightForeArm  133.676 70.7512 147.149
RightHand  -0.68484 3.18388 -9.48349
LeftUpLeg  -20.036 -5.30171 0.927616
LeftLeg  36.653 -0.05893 0.364942
LeftFoot  -1.79031 1.37603 -16.1892
LeftToes  -5.54824e-011 -8.71001e-011 8.3852e-012
281
root  2.93071 38.4259 21.4459 -179.54 19.074 174.941
RightUpLeg  -3.65135 -11.1511 0.145627
RightLeg  30.9436 -3.82933 -2.75072
RightFoot  -18.9205 0.847943 14.4901
RightToes  2.32829e-010 0 -3.6325e-017
Spine  5.7624 -1.42958 -7.38535
Spine1  20.4928 -3.92888 6.71104
HEad  -8.94146 23.5498 -10.2262
LeftShoulder1  0.816313 -0.242912 -14.919
LeftArm  21.8346 11.6133 -60.1538
LeftForeArm  93.0397 -79.7483 -95.4934
LeftHand  -2.56298 -4.82692 28.8451
RightShoulder  0.355397 -1.34991 9.23253
RightArm  16.8725 -24.1185 64.4323
RightForeArm  136.693 69.3517 149.866
RightHand  -0.567894 2.78496 -8.28517
LeftUpLeg  -21.6236 -8.37536 1.89304
LeftLeg  42.6106 2.72971 3.13013
LeftFoot  -4.86027 0.8207 -13.9048
LeftToes  -5.54824e-011 -8.71001e-011 8.3852e-012
282
root  2.12098 37.6604 21.5395 178.689 23.3609 174.528
RightUpLeg  -3.63895 -3.63633 0.239322
RightLeg  33.74 -8.53434 -6.36357
RightFoot  -26.6222 1.30047 10.7889
RightToes  2.32829e-010 0 -3.6325e-017
Spine  7.89715 -0.592685 -4.54634
Spine1  20.0758 -1.71387 3.96043
HEad  -11.143 23.7966 -11.6022
LeftShoulder1  0.623787 0.730836 -15.7476
LeftArm  22.3809 10.9006 -59.6366
LeftForeArm  81.3269 -79.7118 -84.2395
LeftHand  -2.70023 -4.80108 30.3865
RightShoulder  0.375488 -1.3014 9.82813
RightArm  17.0394 -22.3897 63.1391
RightForeArm  135.56 68.503 150.976
RightHand  -0.578204 2.68043 -8.51877
LeftUpLeg  -21.879 -8.10148 3.70456
LeftLeg  48.4946 6.31084 7.99753
LeftFoot  -6.81402 0.463523 -10.6869
LeftToes  -5.54824e-011 -8.71001e-011 8.3852e-012
283
root  1.31922 37.0209 21.6052 178.136 27.409 175.914
RightUpLeg  -4.83803 3.37795 1.81103
RightLeg  37.453 -10.723 -8.95772
RightFoot  -30.3739 1.70043 11.3464
RightToes  2.32829e-010 0 -3.6325e-017
Spine  9.53183 -0.451775 -0.58473
Spine1  20.9377 -0.164351 1.02971
HEad  -14.7087 25.0136 -13.8622
LeftShoulder1  0.509461 1.43503 -17.9226
LeftArm  21.261 9.62676 -58.7076
LeftForeArm  66.8128 -79.0604 -68.2229
LeftHand  -2.76165 -4.54121 31.8049
RightShoulder  0.454414 -0.975445 10.8544
RightArm  16.8071 -18.7709 61.7936
RightForeArm  130.028 69.15 149.302
RightHand  -0.677447 2.7223 -9.89724
LeftUpLeg  -22.3819 -7.36189 7.33987
LeftLeg  53.0331 7.70816 11.257
LeftFoot  -8.41516 0.259686 -8.23898
LeftToes  -5.54824e-011 -8.71001e-011 8.3852e-012
284
root  0.669131 36.7228 21.5341 179.152 29.3504 177.784
RightUpLeg  -6.40487 6.21421 3.15323
RightLeg  39.7184 -11.3289 -10.1969
RightFoot  -30.8768 1.84479 11.9047
RightToes  2.32829e-010 0 -3.6325e-017
Spine  9.35806 -0.850729 1.45267
Spine1  22.567 -0.206967 0.318715
HEad  -17.3869 26.6648 -15.6965
LeftShoulder1  0.620459 1.18601 -20.2532
LeftArm  18.3555 9.42161 -58.2153
LeftForeArm  56.1558 -77.7951 -54.9683
LeftHand  -2.71903 -4.32259 32.0024
RightShoulder  0.523549 -0.719203 11.7899
RightArm  16.5193 -15.34 60.928
RightForeArm  125.247 70.6669 146.148
RightHand  -0.741003 2.77723 -10.734
LeftUpLeg  -23.5504 -8.15725 11.1732
LeftLeg  54.3186 7.49383 11.5279
LeftFoot  -9.40477 0.180108 -7.40877
LeftToes  -5.54824e-011 -8.71001e-011 8.3852e-012
285
root  0.178449 36.9009 21.2891 -179.726 29.2147 178.219
RightUpLeg  -7.03882 6.33275 2.54907
RightLeg  38.8466 -11.9555 -10.4162
RightFoot  -29.6835 1.74359 12.0144
RightToes  2.32829e-010 0 -3.6325e-017
Spine  8.3838 -1.21448 0.717708
Spine1  23.5526 -1.2065 1.51363
HEad  -17.5545 27.7788 -15.6147
LeftShoulder1  0.78918 0.628155 -21.047
LeftArm  16.1267 10.5266 -58.7138
LeftForeArm  52.4837 -77.1515 -50.807
LeftHand  -2.68748 -4.31481 31.6775
RightShoulder  0.505456 -0.877967 12.2921
RightArm  16.0952 -14.7463 60.97
RightForeArm  125.913 71.2875 145.068
RightHand  -0.773021 3.08837 -10.795
LeftUpLeg  -24.4427 -9.85832 13.0574
LeftLeg  51.5187 7.36809 10.2754
LeftFoot  -8.29143 0.260423 -7.8508
LeftToes  -5.54824e-011 -8.71001e-011 8.3852e-012
286
root  -0.231529 37.4764 20.8807 -179.232 29.1966 177.034
RightUpLeg  -6.50739 6.63841 0.0773415
RightLeg  35.1353 -12.0348 -9.23389
RightFoot  -26.93 1.59289 12.9602
RightToes  2.32829e-010 0 -3.6325e-017
Spine  7.84729 -1.05549 -1.0007
Spine1  23.3028 -1.49174 2.11266
HEad  -16.1876 27.8991 -14.032
LeftShoulder1  0.740301 0.7405 -20.292
LeftArm  16.8082 12.0318 -59.1899
LeftForeArm  56.2966 -77.9203 -56.6467
LeftHand  -2.7264 -4.48325 31.5937
RightShoulder  0.423169 -1.30682 12.3278
RightArm  15.2276 -17.3804 61.607
RightForeArm  130.648 70.1148 147.816
RightHand  -0.833059 3.60145 -10.9803
LeftUpLeg  -23.9463 -10.0578 12.624
LeftLeg  45.2344 7.65862 8.59502
LeftFoot  -5.06874 0.505581 -8.66698
LeftToes  -5.54824e-011 -8.71001e-011 8.3852e-012
